<?xml version="1.0" encoding="UTF-8" standalone="no"?>
<svg
   xmlns:dc="http://purl.org/dc/elements/1.1/"
   xmlns:cc="http://creativecommons.org/ns#"
   xmlns:rdf="http://www.w3.org/1999/02/22-rdf-syntax-ns#"
   xmlns:svg="http://www.w3.org/2000/svg"
   xmlns="http://www.w3.org/2000/svg"
   xmlns:sodipodi="http://sodipodi.sourceforge.net/DTD/sodipodi-0.dtd"
   xmlns:inkscape="http://www.inkscape.org/namespaces/inkscape"
   version="1.1"
   id="svg2"
   xml:space="preserve"
   width="821.33331"
   height="814.66669"
   viewBox="0 0 821.33331 814.66669"
   sodipodi:docname="Autobot.eps"><metadata
     id="metadata8"><rdf:RDF><cc:Work
         rdf:about=""><dc:format>image/svg+xml</dc:format><dc:type
           rdf:resource="http://purl.org/dc/dcmitype/StillImage" /></cc:Work></rdf:RDF></metadata><defs
     id="defs6" /><sodipodi:namedview
     pagecolor="#ffffff"
     bordercolor="#666666"
     borderopacity="1"
     objecttolerance="10"
     gridtolerance="10"
     guidetolerance="10"
     inkscape:pageopacity="0"
     inkscape:pageshadow="2"
     inkscape:window-width="640"
     inkscape:window-height="480"
     id="namedview4" /><g
     id="g10"
     inkscape:groupmode="layer"
     inkscape:label="ink_ext_XXXXXX"
     transform="matrix(1.3333333,0,0,-1.3333333,0,814.66667)"><g
       id="g12"
       transform="scale(0.1)"><path
         d="m 4833.5,3124.07 7.64,-297.51 -450.6,-247.07 V 434.254 l 1028.82,843.836 137.39,2331 z m -3512.89,0 -7.63,-297.51 450.59,-247.07 V 434.254 L 734.746,1278.09 597.359,3609.09 Z M 3077.05,840.855 H 2608.64 L 2284.97,6.19141 3077.05,3.01953 3869.14,6.19141 3545.47,840.855 Z m 0,574.085 -476.65,-2.57 -18,1455.84 -742.32,-341.28 -17.01,-2131.856 396.67,-351.7107 345.96,895.4377 511.35,1.191 511.36,-1.191 345.96,-895.4377 396.67,351.7107 -17.01,2131.856 -742.32,341.28 -18,-1455.84 z m 0,2402.17 -613.67,394.03 202.37,-1290.21 V 1488.04 h 411.3 411.31 v 1432.89 l 202.37,1290.21 z m 0,901.94 -670.6,498.93 670.6,1.64 670.61,-1.64 z m 0,1381.24 h -89.29 l -32.4,-0.72 h -31.68 l -30.96,-0.72 -30.96,-0.72 -30.24,-1.44 -59.04,-1.44 -28.08,-1.44 -28.08,-1.44 -27.36,-1.44 -26.64,-1.44 -52.56,-3.6 -63.36,-5.04 -62.64,-6.48 -30.24,-2.88 -30.24,-3.6 -59.76,-7.92 -58.32,-7.92 -57.6,-9.36 -55.44,-10.8 -54.72,-10.8 -51.12,-11.52 -51.12,-12.24 -51.84,-13.68 -51.84,-14.4 -51.12,-15.12 -51.84,-17.28 -52.56,-17.28 -51.84,-18.72 -52.56,-20.16 -51.84,-20.16 -51.84,-21.6 -53.28,-23.04 -51.84,-23.76 -53.28,-25.2 -52.56,-25.92 -129.65,-57.19 91.64,-594.87 1758.1,-1166.49 1758.11,1166.49 91.64,594.87 -129.65,57.19 -52.56,25.92 -53.28,25.2 -51.84,23.76 -53.28,23.04 -51.84,21.6 -51.84,20.16 -52.56,20.16 -51.84,18.72 -52.56,17.28 -51.84,17.28 -51.12,15.12 -51.84,14.4 -51.84,13.68 -51.12,12.24 -51.12,11.52 -54.72,10.8 -55.44,10.8 -57.6,9.36 -58.32,7.92 -59.76,7.92 -30.24,3.6 -30.24,2.88 -62.64,6.48 -63.36,5.04 -52.56,3.6 -26.64,1.44 -27.36,1.44 -28.08,1.44 -28.08,1.44 -59.04,1.44 -30.24,1.44 -30.96,0.72 -30.96,0.72 h -31.68 l -32.4,0.72 h -33.12 z M 717.285,4945.54 l 19.457,-121.99 1238.528,-840.67 -8,114.21 z m 84.789,-531.56 17.184,-107.73 1189.922,-807.68 -7.06,100.85 z M 4.75391,5758.29 1139.17,5674.29 1280.9,5038.96 2397.97,4270.81 2581.68,2982.69 1306.69,3191.88 434.223,3819.24 Z M 5436.83,4945.54 l -19.46,-121.99 -1238.53,-840.67 8,114.21 z m -84.79,-531.56 -17.19,-107.73 -1189.92,-807.68 7.06,100.85 z m 797.32,1344.31 -1134.42,-84 -141.73,-635.33 -1117.07,-768.15 -183.71,-1288.12 1274.99,209.19 872.47,627.36 429.47,1939.05"
         style="fill:#231f20;fill-opacity:1;fill-rule:evenodd;stroke:none"
         id="path14" /><path
         d="m 4833.5,3124.07 7.64,-297.51 -450.6,-247.07 V 434.254 l 1028.82,843.836 137.39,2331 z m -3512.89,0 -7.63,-297.51 450.59,-247.07 V 434.254 L 734.746,1278.09 597.359,3609.09 Z M 3077.05,840.855 H 2608.64 L 2284.97,6.19141 3077.05,3.01953 3869.14,6.19141 3545.47,840.855 Z m 0,574.085 -476.65,-2.57 -18,1455.84 -742.32,-341.28 -17.01,-2131.856 396.67,-351.7107 345.96,895.4377 511.35,1.191 511.36,-1.191 345.96,-895.4377 396.67,351.7107 -17.01,2131.856 -742.32,341.28 -18,-1455.84 z m 0,2402.17 -613.67,394.03 202.37,-1290.21 V 1488.04 h 411.3 411.31 v 1432.89 l 202.37,1290.21 z m 0,901.94 -670.6,498.93 670.6,1.64 670.61,-1.64 z m 0,1381.24 h -89.29 l -32.4,-0.72 h -31.68 l -30.96,-0.72 -30.96,-0.72 -30.24,-1.44 -59.04,-1.44 -28.08,-1.44 -28.08,-1.44 -27.36,-1.44 -26.64,-1.44 -52.56,-3.6 -63.36,-5.04 -62.64,-6.48 -30.24,-2.88 -30.24,-3.6 -59.76,-7.92 -58.32,-7.92 -57.6,-9.36 -55.44,-10.8 -54.72,-10.8 -51.12,-11.52 -51.12,-12.24 -51.84,-13.68 -51.84,-14.4 -51.12,-15.12 -51.84,-17.28 -52.56,-17.28 -51.84,-18.72 -52.56,-20.16 -51.84,-20.16 -51.84,-21.6 -53.28,-23.04 -51.84,-23.76 -53.28,-25.2 -52.56,-25.92 -129.65,-57.19 91.64,-594.87 1758.1,-1166.49 1758.11,1166.49 91.64,594.87 -129.65,57.19 -52.56,25.92 -53.28,25.2 -51.84,23.76 -53.28,23.04 -51.84,21.6 -51.84,20.16 -52.56,20.16 -51.84,18.72 -52.56,17.28 -51.84,17.28 -51.12,15.12 -51.84,14.4 -51.84,13.68 -51.12,12.24 -51.12,11.52 -54.72,10.8 -55.44,10.8 -57.6,9.36 -58.32,7.92 -59.76,7.92 -30.24,3.6 -30.24,2.88 -62.64,6.48 -63.36,5.04 -52.56,3.6 -26.64,1.44 -27.36,1.44 -28.08,1.44 -28.08,1.44 -59.04,1.44 -30.24,1.44 -30.96,0.72 -30.96,0.72 h -31.68 l -32.4,0.72 h -33.12 z M 717.285,4945.54 l 19.457,-121.99 1238.528,-840.67 -8,114.21 z m 84.789,-531.56 17.184,-107.73 1189.922,-807.68 -7.06,100.85 z M 4.75391,5758.29 1139.17,5674.29 1280.9,5038.96 2397.97,4270.81 2581.68,2982.69 1306.69,3191.88 434.223,3819.24 Z M 5436.83,4945.54 l -19.46,-121.99 -1238.53,-840.67 8,114.21 z m -84.79,-531.56 -17.19,-107.73 -1189.92,-807.68 7.06,100.85 z m 797.32,1344.31 -1134.42,-84 -141.73,-635.33 -1117.07,-768.15 -183.71,-1288.12 1274.99,209.19 872.47,627.36 z"
         style="fill:none;stroke:#231f20;stroke-width:2.16;stroke-linecap:butt;stroke-linejoin:miter;stroke-miterlimit:2.6131;stroke-dasharray:none;stroke-opacity:1"
         id="path16" /></g></g></svg>
